<?xml version="1.0" encoding="utf-8"?>
<!-- Generator: Adobe Illustrator 15.0.0, SVG Export Plug-In . SVG Version: 6.00 Build 0)  -->
<!DOCTYPE svg PUBLIC "-//W3C//DTD SVG 1.1//EN" "http://www.w3.org/Graphics/SVG/1.1/DTD/svg11.dtd">
<svg version="1.1" id="Layer_3" xmlns="http://www.w3.org/2000/svg" xmlns:xlink="http://www.w3.org/1999/xlink" x="0px" y="0px"
	 width="512px" height="512px" viewBox="0 0 512 512" enable-background="new 0 0 512 512" xml:space="preserve">
<g>
	<path fill="#FFFFFF" d="M122.53,174.436v199.542h0.114c1.399,16.855,16.903,30.247,35.675,30.247h200.649
		c18.771,0,34.273-13.392,35.675-30.247h0.115V174.436H122.53z"/>
	<path fill="#FFFFFF" d="M112.146,320.585c0,19.683-13.712,35.787-30.47,35.787c-16.761,0-30.475-16.104-30.475-35.787v-117.13
		c0-19.686,13.713-35.79,30.475-35.79c16.758,0,30.47,16.104,30.47,35.79V320.585z"/>
	<path fill="#FFFFFF" d="M239.155,465.95c0,19.684-13.714,35.79-30.474,35.79c-16.758,0-30.47-16.106-30.47-35.79V348.82
		c0-19.684,13.712-35.788,30.47-35.788c16.76,0,30.474,16.104,30.474,35.788V465.95z"/>
	<path fill="#FFFFFF" d="M340.733,465.95c0,19.684-13.715,35.79-30.475,35.79s-30.474-16.106-30.474-35.79V348.82
		c0-19.684,13.714-35.788,30.474-35.788s30.475,16.104,30.475,35.788V465.95z"/>
	<path fill="#FFFFFF" d="M467.44,320.585c0,19.683-13.714,35.787-30.474,35.787c-16.757,0-30.474-16.104-30.474-35.787v-117.13
		c0-19.686,13.717-35.79,30.474-35.79c16.76,0,30.474,16.104,30.474,35.79V320.585z"/>
	<path fill="#FFFFFF" d="M325.945,54.443l19.554-35.083c1.595-2.866,1.126-6.201-1.045-7.412c-2.173-1.21-5.259,0.145-6.854,3.01
		l-20.006,35.896c-17.835-7.018-37.83-10.952-58.949-10.952c-21.276,0-41.412,3.994-59.354,11.114l-20.095-36.058
		c-1.596-2.866-4.681-4.22-6.851-3.01c-2.173,1.21-2.641,4.546-1.045,7.412l19.649,35.26c-40.88,19.199-68.419,55.253-68.419,96.567
		c0,4.198,0.295,8.338,0.846,12.414H393.91c0.554-4.076,0.849-8.215,0.849-12.414C394.759,109.743,367.043,73.595,325.945,54.443z
		 M196.873,115.68c-6.575,0-11.904-5.329-11.904-11.904c0-6.574,5.329-11.905,11.904-11.905c6.574,0,11.905,5.331,11.905,11.905
		C208.778,110.352,203.447,115.68,196.873,115.68z M321.09,115.68c-6.576,0-11.906-5.329-11.906-11.904
		c0-6.574,5.33-11.905,11.906-11.905c6.574,0,11.904,5.331,11.904,11.905C332.994,110.352,327.664,115.68,321.09,115.68z"/>
</g>
</svg>
