<?xml version="1.0" encoding="utf-8"?>
<!-- Generator: Adobe Illustrator 15.0.0, SVG Export Plug-In . SVG Version: 6.00 Build 0)  -->
<!DOCTYPE svg PUBLIC "-//W3C//DTD SVG 1.1//EN" "http://www.w3.org/Graphics/SVG/1.1/DTD/svg11.dtd">
<svg version="1.1" id="Layer_1" xmlns="http://www.w3.org/2000/svg" xmlns:xlink="http://www.w3.org/1999/xlink" x="0px" y="0px"
	 width="170px" height="170px" viewBox="0 0 170 170" enable-background="new 0 0 170 170" xml:space="preserve">
<g>
	<title>Layer 1</title>
	<g id="svg_1">
		<path fill="#FFFFFF" d="M127.807,90.003c0.225,24.214,21.24,32.271,21.474,32.374c-0.178,0.568-3.358,11.482-11.073,22.756
			c-6.668,9.747-13.59,19.459-24.492,19.66c-10.714,0.197-14.158-6.354-26.407-6.354c-12.245,0-16.072,6.152-26.213,6.551
			c-10.524,0.398-18.538-10.541-25.262-20.252c-13.74-19.864-24.24-56.132-10.141-80.613c7.004-12.158,19.521-19.856,33.107-20.054
			c10.334-0.197,20.089,6.953,26.407,6.953c6.313,0,18.167-8.598,30.629-7.335c5.217,0.217,19.859,2.107,29.264,15.871
			C144.34,60.029,127.624,69.76,127.807,90.003 M107.672,30.546c5.587-6.763,9.348-16.178,8.322-25.546
			c-8.055,0.324-17.793,5.367-23.57,12.126c-5.177,5.986-9.711,15.567-8.487,24.75C92.913,42.57,102.084,37.314,107.672,30.546"/>
	</g>
</g>
</svg>
